<svg width="42" height="11" viewBox="0 0 42 11" fill="none" xmlns="http://www.w3.org/2000/svg">
<path d="M4.9753 10L2.5673 2.16H2.5113C2.52064 2.34667 2.53464 2.62667 2.5533 3C2.57197 3.37333 2.59064 3.77467 2.6093 4.204C2.62797 4.624 2.6373 5.00667 2.6373 5.352V10H0.747305V0.00399935H3.6313L5.99731 7.648H6.03931L8.5453 0.00399935H11.4293V10H9.4553V5.268C9.4553 4.95067 9.45997 4.58667 9.46931 4.176C9.48797 3.76533 9.50197 3.378 9.5113 3.014C9.52997 2.64067 9.54397 2.36067 9.55331 2.174H9.49731L6.9213 10H4.9753ZM16.9363 2.216C17.6457 2.216 18.2523 2.35133 18.7563 2.622C19.2697 2.89267 19.6663 3.28467 19.9463 3.798C20.2263 4.31133 20.3663 4.94133 20.3663 5.688V6.696H15.4383C15.457 7.284 15.6297 7.746 15.9563 8.082C16.2923 8.418 16.7543 8.586 17.3423 8.586C17.837 8.586 18.285 8.53933 18.6863 8.446C19.0877 8.34333 19.503 8.18933 19.9323 7.984V9.594C19.559 9.78067 19.1623 9.916 18.7423 10C18.3317 10.0933 17.8323 10.14 17.2443 10.14C16.479 10.14 15.8023 10 15.2143 9.72C14.6263 9.43067 14.1643 8.99667 13.8283 8.418C13.4923 7.83933 13.3243 7.11133 13.3243 6.234C13.3243 5.338 13.4737 4.596 13.7723 4.008C14.0803 3.41067 14.505 2.96267 15.0463 2.664C15.5877 2.36533 16.2177 2.216 16.9363 2.216ZM16.9503 3.7C16.549 3.7 16.213 3.83067 15.9423 4.092C15.681 4.35333 15.527 4.75933 15.4803 5.31H18.4063C18.4063 5.002 18.3503 4.72667 18.2383 4.484C18.1357 4.24133 17.977 4.05 17.7623 3.91C17.5477 3.77 17.277 3.7 16.9503 3.7ZM24.1438 2.356V5.296H27.0558V2.356H29.1418V10H27.0558V6.85H24.1438V10H22.0578V2.356H24.1438ZM41.8834 6.164C41.8834 7.01333 41.7387 7.73667 41.4494 8.334C41.16 8.922 40.7447 9.37 40.2034 9.678C39.6714 9.986 39.0367 10.14 38.2994 10.14C37.674 10.14 37.1094 10.0233 36.6054 9.79C36.1107 9.54733 35.7047 9.18333 35.3874 8.698C35.0794 8.21267 34.8787 7.59667 34.7854 6.85H33.4134V10H31.3274V2.356H33.4134V5.296H34.8134C34.9067 4.63333 35.1074 4.07333 35.4154 3.616C35.7327 3.15867 36.1387 2.81333 36.6334 2.58C37.1374 2.33733 37.7067 2.216 38.3414 2.216C39.032 2.216 39.6434 2.37 40.1754 2.678C40.7074 2.986 41.1227 3.434 41.4214 4.022C41.7294 4.60067 41.8834 5.31467 41.8834 6.164ZM36.8854 6.164C36.8854 6.668 36.932 7.09267 37.0254 7.438C37.128 7.774 37.2867 8.03067 37.5014 8.208C37.716 8.376 37.9914 8.46 38.3274 8.46C38.6634 8.46 38.934 8.376 39.1394 8.208C39.354 8.03067 39.508 7.774 39.6014 7.438C39.704 7.09267 39.7554 6.668 39.7554 6.164C39.7554 5.66 39.704 5.24 39.6014 4.904C39.508 4.568 39.354 4.316 39.1394 4.148C38.934 3.98 38.6587 3.896 38.3134 3.896C37.9774 3.896 37.702 3.98 37.4874 4.148C37.282 4.316 37.128 4.568 37.0254 4.904C36.932 5.24 36.8854 5.66 36.8854 6.164Z" fill="white"/>
</svg>
